<svg xmlns="http://www.w3.org/2000/svg" xmlns:xlink="http://www.w3.org/1999/xlink" xmlns:inkscape="http://www.inkscape.org/namespaces/inkscape" version="1.1" width="595.5" height="841.92" viewBox="0 0 595.5 841.92">
<defs>
<clipPath id="clip_0">
<path transform="matrix(.24,0,0,.24,0,0)" d="M0 115.625H2481.25V3393.75H0Z" clip-rule="evenodd"/>
</clipPath>
<clipPath id="clip_1">
<path transform="matrix(.24,0,0,.24,0,0)" d="M790.625 115.625H1693.75V1037.5H790.625Z" clip-rule="evenodd"/>
</clipPath>
<clipPath id="clip_2">
<path transform="matrix(.24,0,0,.24,0,0)" d="M790.625 115.625H1693.75V1037.5H790.625Z" clip-rule="evenodd"/>
</clipPath>
<clipPath id="clip_3">
<path transform="matrix(.24,0,0,.24,0,0)" d="M943.06 278.25105H1538.1901V873.3811H943.06Z" clip-rule="evenodd"/>
</clipPath>
<clipPath id="clip_4">
<path transform="matrix(.24,0,0,.24,0,0)" d="M942.55166 276.18019H1539.4266V875.43527H942.55166Z" clip-rule="evenodd"/>
</clipPath>
<clipPath id="clip_5">
<path transform="matrix(.24,0,0,.24,0,0)" d="M1036.8757 370.81288H1446.2507V483.31288H1036.8757Z" clip-rule="evenodd"/>
</clipPath>
<clipPath id="clip_6">
<path transform="matrix(.24,0,0,.24,0,0)" d="M1036.8757 650.9051H1446.2507V779.05H1036.8757Z" clip-rule="evenodd"/>
</clipPath>
<clipPath id="clip_7">
<path transform="matrix(.24,0,0,.24,0,0)" d="M967.84109 562.5513H1036.5911V631.3013H967.84109Z" clip-rule="evenodd"/>
</clipPath>
<clipPath id="clip_8">
<path transform="matrix(.24,0,0,.24,0,0)" d="M1447.2315 562.5513H1515.9815V631.3013H1447.2315Z" clip-rule="evenodd"/>
</clipPath>
<clipPath id="clip_9">
<path transform="matrix(.24,0,0,.24,0,0)" d="M1086.8939 391.73966H1396.2689V760.4896H1086.8939Z" clip-rule="evenodd"/>
</clipPath>
</defs>
<g clip-path="url(#clip_0)">
<path transform="matrix(.75,0,0,.75,0,27.75)" d="M0 0H794V295H0Z" fill="#ffffff"/>
<path transform="matrix(.75,0,0,.75,0,27.75)" d="M0 0H794V295H0Z" fill="#ffffff"/>
</g>
<g clip-path="url(#clip_1)">
<path transform="matrix(.75,0,0,.75,0,27.75)" d="M253 0H542V295H253Z" fill="#ffffff"/>
</g>
<g clip-path="url(#clip_2)">
<path transform="matrix(.75,0,0,.75,0,27.75)" d="M253 0H542V295H253Z" fill="#ffffff"/>
</g>
<g clip-path="url(#clip_3)">
<path transform="matrix(.3528325,0,0,.3528325,226.21239,66.28324)" d="M203 406C91.1 406 0 314.9 0 203 0 91.100009 91.1 0 203 0 314.9 0 406 91.1 406 203 406 314.9 314.9 406 203 406ZM203 3C92.7 3 3 92.7 3 203 3 313.3 92.7 403 203 403 313.3 403 403 313.3 403 203 403 92.70001 313.3 3 203 3Z" fill="#00bf63"/>
</g>
<g clip-path="url(#clip_4)">
<path transform="matrix(.27611465,0,0,.27611465,226.21239,66.28324)" stroke-width="134" stroke-linecap="butt" stroke-miterlimit="4" stroke-linejoin="miter" fill="none" stroke="#000000" d="M0 0V520.875H520.875V0H0"/>
</g>
<g clip-path="url(#clip_5)">
<path transform="matrix(.24199507,0,0,.24199507,248.85018,88.99509)" d="M203 406C91.1 406 0 314.9 0 203 0 91.100009 91.1 0 203 0 314.9 0 406 91.1 406 203 406 314.9 314.9 406 203 406ZM203 3C92.7 3 3 92.7 3 203 3 313.3 92.7 403 203 403 313.3 403 403 313.3 403 203 403 92.70001 313.3 3 203 3Z"/>
</g>
<g clip-path="url(#clip_6)">
<path transform="matrix(.24199507,0,0,.24199513,248.85018,88.72197)" d="M203 406C91.1 406 0 314.9 0 203 0 91.100009 91.1 0 203 0 314.9 0 406 91.1 406 203 406 314.9 314.9 406 203 406ZM203 3C92.7 3 3 92.7 3 203 3 313.3 92.7 403 203 403 313.3 403 403 313.3 403 203 403 92.70001 313.3 3 203 3Z"/>
</g>
<g clip-path="url(#clip_7)">
<path transform="matrix(.033,0,0,.033,232.28185,135.0123)" d="M250 0C225.635 205.882 205.882 225.634 0 250 .428 250.051 .84900006 250.101 1.276 250.152L1.28 250.15599 1.2839999 250.15299C205.958 274.449 225.686 294.549 250 500 274.365 294.11799 294.118 274.365 500 250 294.118 225.634 274.365 205.882 250 0Z" fill="#ff8888"/>
</g>
<g clip-path="url(#clip_8)">
<path transform="matrix(.033,0,0,.033,347.33555,135.0123)" d="M250 0C225.635 205.882 205.882 225.634 0 250 .428 250.051 .84900006 250.101 1.276 250.152L1.28 250.15599 1.2839999 250.15299C205.958 274.449 225.686 294.549 250 500 274.365 294.11799 294.118 274.365 500 250 294.118 225.634 274.365 205.882 250 0Z" fill="#ff8888"/>
</g>
<g clip-path="url(#clip_9)">
<path transform="matrix(.17536217,0,0,.17632994,260.86415,94.63467)" d="M214.82 257.57H418.64C418.64 278.53 417.77003 297.57 416.02003 314.69 414.27003 331.81 410.78004 347.69 405.55003 362.36 398.19004 382.97999 388.26 401.22999 375.68003 417.11 363.10005 433.02 348.35005 446.3 331.40003 456.94 314.45 467.6 295.86003 475.72 275.60005 481.31 255.32004 486.9 234.03003 489.69 211.66004 489.69 180.94004 489.69 152.90004 484.62 127.57004 474.49 102.240039 464.36 80.490039 450.13999 62.33004 431.78999 44.16004 413.44999 30.03004 391.44999 19.90004 365.77998 9.76 340.1 4.7 311.72 4.7 280.62 4.7 249.9 9.67 221.67 19.619999 196 29.569998 170.33 43.73 148.41 62.07 130.25 80.41 112.09 102.49 97.95 128.36 87.8 154.2 77.670009 183.03 72.62 214.81 72.62 256.02 72.62 292.18 81.51 323.27 99.33 354.36 117.15 378.97999 144.74 397.15 182.12L299.69 222.45999C290.61003 200.81999 278.82 185.26 264.32 175.82999 249.82 166.40999 233.32 161.68999 214.81002 161.68999 199.44002 161.68999 185.47002 164.56999 172.89002 170.31999 160.31002 176.06999 149.57 184.31 140.65001 194.95 131.76001 205.61 124.77001 218.45 119.69001 233.45 114.64001 248.48 112.100009 265.26 112.100009 283.77 112.100009 300.53 114.270008 316.06999 118.65001 330.4 123.030017 344.73 129.57 357.11 138.31002 367.6 147.03002 378.07 157.86002 386.19 170.80002 391.97 183.70001 397.73 198.73001 400.6 215.85002 400.6 225.98003 400.6 235.76003 399.47 245.19002 397.19 254.63002 394.93 263.1 391.26 270.6 386.19 278.1 381.14 284.31 374.59 289.21003 366.55 294.09004 358.50999 297.40003 348.72999 299.17 337.19H214.81002V257.57H214.82Z" fill="#009853"/>
<path transform="matrix(.17536217,0,0,.17632994,260.86415,94.63467)" d="M302.45 53.34C302.45 82.46 278.85 106.06 249.73001 106.06 228.14002 106.06 209.58002 93.07 201.43001 74.49 193.28002 93.08 174.73001 106.06 153.13 106.06 124.01 106.06 100.41 82.46 100.41 53.339998 100.41 24.219996 124.01 .6199951 153.13 .6199951 174.72 .6199951 193.28 13.609995 201.43001 32.189996 209.58 13.599995 228.13 .6199951 249.73001 .6199951 278.84 .61 302.45 24.22 302.45 53.34Z" fill="#dddac6"/>
<path transform="matrix(.17536217,0,0,.17632994,260.86415,94.63467)" d="M210.11 256.96V346H272.69C283.99 346 291.14 358.33 285.32 368.01 285.28 368.07 285.25 368.13 285.21003 368.19 280.68003 375.61003 274.89 381.73 267.98 386.38 260.96003 391.12 252.93001 394.6 244.1 396.71 235.08 398.88999 225.58 399.99 215.86 399.99 199.47 399.99 184.96 397.22 172.73 391.75999 160.5 386.3 150.14 378.52998 141.93 368.66999 133.64 358.71998 127.31999 346.75999 123.15999 333.11 118.94999 319.31999 116.81999 304.09999 116.81999 287.86 116.81999 269.96 119.28999 253.53998 124.15999 239.03998 129.01999 224.66999 135.79 212.22998 144.26999 202.05998 152.71999 191.96999 163.01 184.10999 174.85999 178.68999 186.75998 173.23999 200.19998 170.47998 214.80998 170.47998 232.29999 170.47998 248.08998 174.97998 261.75999 183.85999 275.36 192.69998 286.65998 207.66999 295.36 228.35999L297.16999 232.66999 403.56 188.62998 401.37 184.12998C382.87 146.07997 357.38999 117.53998 325.62 99.31998 321.34 96.86998 316.93 94.629978 312.43 92.53998 305.62 89.38998 302.09 81.65998 304.41 74.529979 308.01 63.469976 308.33003 50.979978 303.7 37.869977 297.23 19.589976 282.11003 5.869976 263.21003 1.5299759 242.57003-3.2100239 223.30002 3.289976 210.07003 16.049977 205.29003 20.669976 197.60002 20.699976 192.82003 16.079977 179.31 3.05 159.5-3.46 138.36 1.86 119.01 6.73 103.630008 21.730002 98.09 40.9 93.75 55.910005 95.579998 70.14 101.439998 82.09 105.17999 89.71999 102.17999 98.899997 94.88 103.24 81.57 111.159999 69.439998 120.399997 58.749998 130.98999 40.019998 149.54999 25.379998 172.21999 15.229996 198.37999 5.13 224.48 0 253.51 0 284.71 0 316.28999 5.22 345.53 15.53 371.59999 25.84 397.74998 40.46 420.49 58.989999 439.18 77.5 457.9 99.979999 472.62 125.82 482.94999 151.6 493.24998 180.48 498.47999 211.65 498.47999 234.31999 498.47999 256.25 495.59999 276.84 489.93 297.43 484.25999 316.63 475.87 333.88999 465.00999 351.18998 454.15998 366.49 440.39997 379.36 424.12 392.15998 407.94999 402.46 389.09 409.96998 368.03 415.29997 353.02 418.90998 336.62 420.68998 319.26 422.43998 301.98 423.33998 282.6 423.33998 261.66V256.96H210.11ZM249.72 9.41C279.83003 9.41 303.56 37.27 296.47 68.59 292.53 85.98 278.93 99.8 261.6 104 238.82 109.53 218.14002 98.63 208.1 80.92 214.57 87.53 223.56002 91.659999 233.54001 91.659999 243.03002 91.659999 251.62001 87.939998 257.98 81.88 262.90003 77.2 261.13 68.97 254.74 66.67L243.05 62.46C238.84 60.95 238.85 54.989999 243.07 53.489999L254.99 49.25C262.29 46.65 264.67 37.39 259.4 31.72 252.95 24.779999 243.78 20.43 233.54999 20.43 225.65 20.43 218.41999 23.09 212.50998 27.44 221.32 16.54 234.64 9.41 249.72 9.41ZM153.13 9.41C169.96 9.41 184.68001 18.18 193.23001 31.33 194.96 33.99 195.51001 38.65 194.62001 41.69 193.14002 46.69 192.3 51.96 192.3 57.43 192.3 62.88 193.14 68.13 194.6 73.11 195.71 76.9 194.96 80.98 192.75 84.25 184.13 97 169.64 105.45 153.13 105.45 135.22 105.45 119.76001 95.479999 111.5 80.92 117.97 87.54 126.97 91.68 136.95 91.68 146.73999 91.68 155.58 87.71 162 81.3 166.53 76.78001 164.65 69.03 158.63 66.86L148.39 63.170003C143.53 61.420003 143.55 54.550004 148.41 52.82L158.42 49.26C165.70999 46.67 168.09 37.43 162.81999 31.759999 156.37 24.809998 147.2 20.46 136.95 20.46 129.04 20.46 121.81 23.119999 115.899997 27.48 124.71 16.55 138.03 9.41 153.13 9.41ZM411.34 318.31C409.63999 334.91999 406.19999 350.59 401.11 364.87 393.96 384.94999 384.15998 402.91999 371.99 418.28999 359.78 433.71998 345.27 446.75999 328.9 457.05 312.41 467.40998 294.05 475.41999 274.35 480.86 254.57 486.31 233.48001 489.06999 211.66 489.06999 181.69 489.06999 153.98001 484.06999 129.32 474.19999 104.69001 464.36 83.28001 450.34999 65.68001 432.56 48.060007 414.77 34.13001 393.09 24.280007 368.14 14.4100069 343.17 9.4100069 315.1 9.4100069 284.71003 9.4100069 254.69002 14.320006 226.78003 24.010006 201.79003 33.680009 176.87003 47.600008 155.30002 65.39001 137.69004 75.83001 127.340038 87.700008 118.33003 100.79001 110.64003 109.37001 105.60003 119.91001 104.96003 128.88 109.28003 136.23001 112.82003 144.43001 114.85003 153.13 114.85003 168.8 114.85003 182.96 108.510028 193.3 98.28003 197.76001 93.870029 205.1 93.870029 209.56 98.28003 219.9 108.50003 234.06 114.85003 249.73 114.85003 263 114.85003 275.12 110.23003 284.8 102.60003 290.77 97.89003 298.84 96.72003 305.78 99.83003 310.98 102.160037 316.06 104.700038 320.95 107.50003 343.19 120.26003 362.23 138.43003 377.78004 161.70003 385.21003 172.82003 380.66004 187.95003 368.31004 193.06003L328.87004 209.38004C314.63005 215.27004 298.34004 210.41004 289.33003 197.90004 282.7 188.70005 275.21003 181.37004 266.90003 175.97003 251.69002 166.08003 234.17003 161.07004 214.83002 161.07004 198.86002 161.07004 184.10002 164.12004 170.96002 170.13004 157.83002 176.13004 146.44002 184.84004 137.07003 196.01004 127.830028 207.08005 120.50002 220.53005 115.27002 236.03005 110.07002 251.49005 107.44002 268.92005 107.44002 287.85005 107.44002 305.02006 109.710018 321.17005 114.180019 335.84004 118.710018 350.7 125.63001 363.76005 134.73001 374.68003 143.86002 385.64 155.36002 394.28004 168.92002 400.34004 182.36002 406.34004 198.17002 409.38005 215.89002 409.38005 226.35002 409.38005 236.59001 408.19004 246.32 405.84004 256.25 403.46003 265.31 399.53004 273.27003 394.17 281.31004 388.76 288.03004 381.66 293.27003 373.08003 298.43003 364.6 301.99003 354.14 303.87004 341.99003L304.7 336.58003H243.04001C230.07 336.58003 219.55 326.06004 219.55 313.09004V295.39C219.55 279.35 232.55 266.35 248.59 266.35H386.3C401.71 266.35 413.96 279.28 413.15998 294.68 412.7 302.95 412.1 310.83 411.34 318.31ZM163 138.02C161.19 136.16 161.22 133.18001 163.07 131.37001 164.93001 129.56002 167.88 129.58002 169.71 131.42002 170.58 132.28002 191.28 152.14002 227.96 131.87001 224.64 125.51001 224.82 119.40001 224.84001 119.08001 224.96 116.48001 227.12001 114.66001 229.75002 114.58001 232.33002 114.70001 234.34001 116.88001 234.23001 119.47001 234.23001 119.58001 234.1 126.15001 238.71 130.95001 242.21 134.6 247.69 136.47002 254.98001 136.55002 258.07 136.58002 260.44 139.58002 259.39 142.84001 258.78004 144.73001 256.93003 145.96 254.94002 145.96H254.90003C246.18003 145.87001 239.26003 143.54001 234.08002 139.24 219.78002 147.47 207.30002 150.33 196.97002 150.33 175.42 150.32 163.18 138.2 163 138.02Z" fill="#151515"/>
</g>
</svg>
